<svg width="55" height="55" viewBox="0 0 55 55" fill="none" xmlns="http://www.w3.org/2000/svg">
<mask id="mask0_217_25" style="mask-type:luminance" maskUnits="userSpaceOnUse" x="0" y="0" width="55" height="55">
<path d="M0 10C0 4.47715 4.47715 0 10 0H45C50.5228 0 55 4.47715 55 10V45C55 50.5228 50.5228 55 45 55H10C4.47715 55 0 50.5228 0 45V10Z" fill="white"/>
</mask>
<g mask="url(#mask0_217_25)">
<path d="M2.72216 42.2748C2.72216 47.7977 7.19932 52.2748 12.7222 52.2748H42.273C47.7958 52.2748 52.273 47.7977 52.273 42.2748V12.724C52.273 7.20119 47.7958 2.72403 42.273 2.72403H12.7222C7.19932 2.72403 2.72216 7.20118 2.72216 12.724V42.2748ZM54.9951 44.997C54.9951 50.5198 50.518 54.997 44.9951 54.997H10C4.47716 54.997 0 50.5199 0 44.997V10.0019C0 4.47902 4.47715 0.00186157 10 0.00186157H44.9951C50.518 0.00186157 54.9951 4.47901 54.9951 10.0019V44.997Z" fill="#57F6DA"/>
</g>
<g filter="url(#filter0_d_217_25)">
<mask id="mask1_217_25" style="mask-type:luminance" maskUnits="userSpaceOnUse" x="7" y="7" width="41" height="40">
<path d="M7 7H47.8196V46.9774H7V7Z" fill="white"/>
</mask>
<g mask="url(#mask1_217_25)">
<path d="M47.641 26.2389C47.4759 27.682 46.2097 27.9052 45.0016 27.7981C40.9697 27.4395 36.908 27.8368 32.8864 27.2848C32.3835 27.2178 31.8226 27.0824 31.223 27.5749C32.1217 29.0672 33.5336 30.0923 34.7521 31.2647C36.7428 33.1914 38.7454 35.1003 40.5233 37.2204C41.1229 37.936 42.0513 38.6829 41.2196 39.65C40.321 40.7063 39.3242 39.9222 38.552 39.3212C35.679 37.0746 32.8284 34.8191 30.2753 32.2035C29.9569 31.8747 29.5894 31.6039 28.9214 31.0222C28.8053 33.6169 28.6893 35.865 28.603 38.1101C28.5256 40.202 28.4959 42.2938 28.3798 44.3857C28.3218 45.4896 28.487 46.9908 26.8042 46.9031C25.2956 46.8153 25.2956 45.3825 25.2569 44.2399C25.1126 40.4638 25.0159 36.6877 24.8894 32.9102C24.8701 32.2615 25.0828 31.5831 24.4847 30.5862C22.5015 32.8135 20.5882 34.9054 18.7314 37.0552C17.803 38.1309 17.01 39.3122 16.1024 40.3969C15.3481 41.2866 14.5447 42.8265 13.2399 41.965C11.7595 40.9875 13.0941 39.6515 13.6163 38.6055C15.4046 35.0809 18.1511 32.263 20.6462 29.2606C21.0122 28.8247 21.6713 28.5643 21.5835 27.691C19.1286 27.3622 16.6618 27.4693 14.207 27.7103C12.4469 27.8859 10.7061 27.7892 8.95648 27.6136C7.93138 27.508 7.06101 27.1881 7.04167 25.9681C7.02233 24.5829 8.04743 24.2631 9.10972 24.3211C12.2921 24.4862 15.4329 23.964 18.5945 23.964C19.456 23.964 20.3352 24.0696 21.283 23.6441C21.2056 22.8109 20.5287 22.4241 20.0258 21.9584C18.1407 20.2251 16.2066 18.5409 14.3409 16.7779C13.3262 15.8197 11.9336 14.6667 13.2592 13.2146C14.6994 11.6167 15.9566 13.0985 17.0293 14.0463C19.3012 16.0518 21.5062 18.1526 23.7394 20.2058C24.0786 20.5153 24.3389 20.9512 25.1617 20.9899C25.3447 17.3775 25.5098 13.8915 25.7315 10.4056C25.8193 8.99068 25.5292 6.99553 27.6657 7.06397C29.6564 7.13241 29.3186 9.02937 29.338 10.3952C29.3767 13.6103 29.3484 16.8151 29.3484 20.4855C30.6249 19.2953 31.6486 18.3951 32.6067 17.4162C34.8295 15.1606 37.518 13.4169 39.461 10.8504C40.0904 10.0173 41.0961 9.8432 41.9844 10.5306C42.9232 11.2566 42.7104 12.1865 42.2165 13.0777C41.3759 14.5789 40.1871 15.7691 38.8332 16.7957C36.4155 18.6451 34.4337 20.9497 31.8033 23.4195C34.529 23.5653 36.7636 23.7007 38.9879 23.8063C41.0753 23.9134 43.1642 23.9432 45.2427 24.1068C46.5088 24.2154 47.824 24.6231 47.641 26.2389Z" fill="white"/>
</g>
</g>
<defs>
<filter id="filter0_d_217_25" x="3.0414" y="7.06226" width="48.6168" height="47.8445" filterUnits="userSpaceOnUse" color-interpolation-filters="sRGB">
<feFlood flood-opacity="0" result="BackgroundImageFix"/>
<feColorMatrix in="SourceAlpha" type="matrix" values="0 0 0 0 0 0 0 0 0 0 0 0 0 0 0 0 0 0 127 0" result="hardAlpha"/>
<feOffset dy="4"/>
<feGaussianBlur stdDeviation="2"/>
<feComposite in2="hardAlpha" operator="out"/>
<feColorMatrix type="matrix" values="0 0 0 0 0 0 0 0 0 0 0 0 0 0 0 0 0 0 0.25 0"/>
<feBlend mode="normal" in2="BackgroundImageFix" result="effect1_dropShadow_217_25"/>
<feBlend mode="normal" in="SourceGraphic" in2="effect1_dropShadow_217_25" result="shape"/>
</filter>
</defs>
</svg>
